<?xml version="1.0" standalone="no"?>
<!DOCTYPE svg PUBLIC "-//W3C//DTD SVG 1.1//EN" "http://www.w3.org/Graphics/SVG/1.1/DTD/svg11.dtd" >
<svg>
<metadata>
Created by FontForge 20120731 at Tue Sep 18 13:19:18 2018
 By www-data
Typeface (c) (your company). 2012. All Rights Reserved
</metadata>
<defs>
<font id="TIS_Sup-BoldItalic" horiz-adv-x="1108" >
  <font-face 
    font-family="TIS_Sup"
    font-weight="700"
    font-style="italic"
    font-stretch="normal"
    units-per-em="2048"
    panose-1="2 0 8 0 0 0 0 0 0 0"
    ascent="1638"
    descent="-410"
    x-height="1475"
    cap-height="1755"
    bbox="-192 -428 2182 1786"
    underline-thickness="150"
    underline-position="-142"
    slope="-6"
    unicode-range="U+0020-F002"
  />
<missing-glyph horiz-adv-x="1024" 
d="M100 0v1434h824v-1434h-824zM150 50h724v1334h-724v-1334zM300 1143q34 31 63 47q62 35 132 35q107 0 168 -52t61 -129q0 -47 -22.5 -96t-87.5 -129q-62 -79 -98.5 -131.5t-36.5 -103.5q0 -38 26 -138h-82q-38 105 -38 154q0 73 81.5 215t81.5 219q0 61 -28 89t-70 28
q-28 0 -50 -12q-24 -13 -100 -79v83zM380 331l58 59q14 12 29 12q14 0 30 -14l56 -60q8 -11 8 -19q0 -10 -10 -21l-56 -62q-17 -17 -28 -17q-17 0 -29 13l-62 71q-7 9 -7 17q0 10 11 21z" />
    <glyph glyph-name=".notdef" horiz-adv-x="1024" 
d="M100 0v1434h824v-1434h-824zM150 50h724v1334h-724v-1334zM300 1143q34 31 63 47q62 35 132 35q107 0 168 -52t61 -129q0 -47 -22.5 -96t-87.5 -129q-62 -79 -98.5 -131.5t-36.5 -103.5q0 -38 26 -138h-82q-38 105 -38 154q0 73 81.5 215t81.5 219q0 61 -28 89t-70 28
q-28 0 -50 -12q-24 -13 -100 -79v83zM380 331l58 59q14 12 29 12q14 0 30 -14l56 -60q8 -11 8 -19q0 -10 -10 -21l-56 -62q-17 -17 -28 -17q-17 0 -29 13l-62 71q-7 9 -7 17q0 10 11 21z" />
    <glyph glyph-name=".null" horiz-adv-x="0" 
 />
    <glyph glyph-name="nonmarkingreturn" horiz-adv-x="508" 
 />
    <glyph glyph-name="space" unicode=" " horiz-adv-x="508" 
 />
    <glyph glyph-name="space" unicode="&#xa0;" horiz-adv-x="508" 
 />
    <glyph glyph-name="exclam" unicode="!" horiz-adv-x="679" 
d="M311 1276l2 -2q74 131 140 193q58 54 109 54q85 0 85 -93q0 -45 -18 -113l-85 -301q-6 -22 -2 -33q4 -10 12 -10q28 0 77 95l17 -17q-76 -169 -187 -169q-86 0 -86 80q0 28 28 130l69 240q3 12 5 25q4 14 4 20q0 22 -18 22q-41 0 -104 -90q-69 -100 -108 -239l-50 -178
h-161l129 451q13 48 13 65q0 50 -63 50l7 25l232 40h23z" />
    <glyph glyph-name="quotedbl" unicode="&#x22;" horiz-adv-x="694" 
d="M288 1098h-71l-30 402q0 32 28.5 59.5t82.5 27.5q53 0 73 -25t20 -51q0 -5 -1 -10l-5 -24zM624 1098h-71l-30 402q0 32 28.5 59.5t82.5 27.5q53 0 73 -25t20 -51q0 -5 -1 -10l-5 -24z" />
    <glyph glyph-name="numbersign" unicode="#" horiz-adv-x="1017" 
d="M295 1246l3 -3q132 256 276 256q76 0 76 -86q0 -61 -36 -167l2 -3q134 256 268 256q80 0 80 -89q0 -52 -19 -116l-57 -199q-17 -60 -22 -80l-3 -16l-1 -9q0 -19 15 -19q25 0 69 91l20 -18q-76 -160 -184 -160q-78 0 -78 81q0 27 8 53l89 317q4 18 4 30q0 21 -17 21
q-50 0 -120 -99q-72 -101 -106 -224l-47 -170h-154l110 390q16 54 16 78q0 25 -24 25q-44 0 -112 -94q-67 -92 -94 -188l-61 -211h-154l122 431q13 45 13 61q0 49 -71 49l9 27l232 38h21z" />
    <glyph glyph-name="dollar" unicode="$" horiz-adv-x="679" 
d="M311 1276l2 -2q74 131 140 193q58 54 109 54q85 0 85 -93q0 -45 -18 -113l-85 -301q-6 -22 -2 -33q4 -10 12 -10q28 0 77 95l17 -17q-76 -169 -187 -169q-86 0 -86 80q0 28 28 130l69 240q3 12 5 25q4 14 4 20q0 22 -18 22q-41 0 -104 -90q-69 -100 -108 -239l-50 -178
h-161l129 451q13 48 13 65q0 50 -63 50l7 25l232 40h23z" />
    <glyph glyph-name="percent" unicode="%" horiz-adv-x="1593" 
d="M553 1465q110 0 204 -53t136 -144q33 -71 33 -145q0 -21 -3 -43q-11 -96 -72 -186t-167.5 -144.5t-219.5 -54.5q-112 0 -205.5 54.5t-134.5 144.5q-33 71 -33 146q0 20 2 40q12 97 75 188t169 144t216 53zM292 1064q2 -94 35 -175t85 -119q47 -35 91 -35h9q47 2 99 47
t84 133q30 84 30 175v6q-1 95 -35.5 177t-85.5 119q-48 34 -92 34h-7q-46 -2 -97.5 -46t-83.5 -132.5t-32 -183.5zM1252 744q109 0 203.5 -53.5t136.5 -144.5q33 -72 33 -147q0 -20 -2 -40q-12 -97 -73 -187t-167.5 -144t-219.5 -54t-206 54t-134 144q-33 70 -33 144
q0 21 3 43q11 96 74 187t169 144.5t216 53.5zM991 342q2 -94 35 -175t85 -119q48 -35 93 -35h7q47 2 99 47t84 133q30 84 30 175v6q-1 95 -35.5 177t-85.5 119q-48 34 -92 34h-7q-46 -2 -97.5 -46t-83.5 -132.5t-32 -183.5zM244 -32l1112 1466h110l-1110 -1466h-112z" />
    <glyph glyph-name="ampersand" unicode="&#x26;" horiz-adv-x="1659" 
d="M449 865q-89 -15 -139 -74q-65 -79 -79 -202q-3 -29 -3 -57q0 -66 18 -130q25 -92 82 -164q59 -78 136.5 -117t162.5 -39q74 0 147 29q60 24 134 93zM971 124q-67 -54 -162 -95q-126 -55 -275 -55q-256 0 -390 158q-113 132 -113 315q0 36 4 73q18 156 110 265
q78 95 253 156v2q-35 61 -49 115q-10 38 -10 75q0 16 2 32q12 101 104 198t217 97q80 0 159 -45q18 -11 30 -11q25 0 25 42q0 7 -1 14h56l66 -293h-59q-68 116 -147 167q-77 48 -135 48h-5q-46 0 -87 -40.5t-50 -116.5q-2 -20 -2 -40q0 -115 74 -232l432 -639
q97 127 128 216q33 97 33 152q0 74 -58 74h-84l7 56h471l-7 -56h-84q-102 0 -176 -222q-43 -123 -175 -299q85 -125 204 -125h13q164 14 227 128h62l-136 -244h-184q-63 0 -151 28q-74 22 -137 102z" />
    <glyph glyph-name="quotesingle" unicode="'" horiz-adv-x="358" 
d="M288 1088h-71l-30 402q0 32 28.5 59.5t82.5 27.5q53 0 73 -25t20 -51q0 -5 -1 -10l-5 -24z" />
    <glyph glyph-name="parenleft" unicode="(" horiz-adv-x="417" 
d="M603 1706q-101 -136 -161 -298q-66 -180 -66 -355q0 -193 47 -334h-147q-68 156 -68 321q0 402 244 666h151z" />
    <glyph glyph-name="parenright" unicode=")" horiz-adv-x="417" 
d="M88 719q103 137 162 299q65 178 65 354q0 190 -47 334h148q67 -145 67 -322q0 -398 -243 -665h-152z" />
    <glyph glyph-name="asterisk" unicode="*" horiz-adv-x="1017" 
d="M295 1246l3 -3q132 256 276 256q76 0 76 -86q0 -61 -36 -167l2 -3q134 256 268 256q80 0 80 -89q0 -52 -19 -116l-57 -199q-17 -60 -22 -80l-3 -16l-1 -9q0 -19 15 -19q25 0 69 91l20 -18q-76 -160 -184 -160q-78 0 -78 81q0 27 8 53l89 317q4 18 4 30q0 21 -17 21
q-50 0 -120 -99q-72 -101 -106 -224l-47 -170h-154l110 390q16 54 16 78q0 25 -24 25q-44 0 -112 -94q-67 -92 -94 -188l-61 -211h-154l122 431q13 45 13 61q0 49 -71 49l9 27l232 38h21z" />
    <glyph glyph-name="plus" unicode="+" horiz-adv-x="734" 
d="M423 1604v-279h245v-120h-245v-282h-114v282h-245v120h245v279h114z" />
    <glyph glyph-name="comma" unicode="," horiz-adv-x="578" 
d="M218 264q78 0 118 -70q31 -56 31 -120q0 -16 -2 -33q-12 -106 -99.5 -228t-198.5 -122l5 48q78 43 109 191q1 13 1 24q0 99 -111 137l4 39z" />
    <glyph glyph-name="hyphen" unicode="-" horiz-adv-x="737" 
d="M674 1334v-92h-616v92h616z" />
    <glyph glyph-name="hyphen" unicode="&#xad;" horiz-adv-x="737" 
d="M674 1334v-92h-616v92h616z" />
    <glyph glyph-name="period" unicode="." horiz-adv-x="578" 
d="M116 181l100 90q17 15 32 15q14 0 30 -17l76 -93q9 -15 9 -27v-4q-2 -15 -19 -32l-96 -95q-25 -21 -34 -21q-17 0 -28 15l-83 108q-7 13 -7 24v4q2 16 20 33z" />
    <glyph glyph-name="slash" unicode="/" horiz-adv-x="569" 
d="M22 -60h-127l721 1494h127z" />
    <glyph glyph-name="zero" unicode="0" horiz-adv-x="749" 
d="M445 821q-276 0 -276 301q0 212 113 361q120 157 307 157q131 0 206 -82q70 -78 70 -200q0 -226 -113 -378q-118 -159 -304 -159h-3zM472 991q73 0 123 131q41 110 41 217q0 131 -74 131q-72 0 -122 -138q-42 -112 -42 -210q0 -131 72 -131h2z" />
    <glyph glyph-name="one" unicode="1" horiz-adv-x="561" 
d="M278 831l114 605l-162 -66l-18 162l248 98h207l-152 -799h-237z" />
    <glyph glyph-name="two" unicode="2" horiz-adv-x="698" 
d="M90 831l23 117l272 208q55 44 90 80q80 80 80 142q0 80 -103 80q-94 0 -180 -59l-37 149q132 92 299 92q118 0 193 -54q82 -59 82 -165q0 -107 -94 -207q-37 -40 -95 -84q-22 -18 -52 -39l-109 -77v-6h288l-34 -177h-623z" />
    <glyph glyph-name="three" unicode="3" horiz-adv-x="686" 
d="M245 1567q113 73 283 73q114 0 192 -50q80 -53 80 -136q0 -143 -198 -194v-5q65 -11 111 -55q51 -49 51 -117q0 -122 -114 -194q-106 -68 -267 -68q-182 0 -283 68l74 155q83 -61 192 -61q152 0 152 102q0 99 -172 99h-37l27 137h32q72 0 124 22q59 26 59 70q0 64 -95 64
q-110 0 -190 -58z" />
    <glyph glyph-name="four" unicode="4" horiz-adv-x="747" 
d="M468 831l37 187h-385l27 131l419 487h275l-88 -465h104l-30 -153h-105l-35 -187h-219zM560 1315q7 32 19 79l20 76h-4q-50 -77 -100 -141l-127 -158h166z" />
    <glyph glyph-name="five" unicode="5" horiz-adv-x="690" 
d="M776 1452h-312l-26 -94q13 1 29 2h24q83 0 145 -33q133 -51 133 -186q0 -150 -125 -238q-117 -82 -303 -82q-151 0 -229 43l51 164q31 -13 73 -23q55 -12 107 -12q177 0 177 119q0 98 -199 98q-64 0 -113 -6l119 426h483z" />
    <glyph glyph-name="six" unicode="6" horiz-adv-x="733" 
d="M792 1468q-11 1 -20 2l-22 1q-26 1 -48 -1q-198 -17 -259 -153l3 -2q67 57 159 57q228 0 228 -229q0 -137 -102 -229q-102 -93 -253 -93q-139 0 -226 84q-85 82 -85 207q0 132 67 250q62 107 162 174q143 89 320 98q54 6 106 2zM489 979q116 0 116 149q0 97 -94 97
q-58 0 -94 -51q-14 -18 -19 -29q-8 -27 -8 -64q0 -102 96 -102h3z" />
    <glyph glyph-name="seven" unicode="7" horiz-adv-x="647" 
d="M837 1630l-27 -137l-448 -662h-246q258 357 442 619v2h-354l35 178h598z" />
    <glyph glyph-name="eight" unicode="8" horiz-adv-x="743" 
d="M585 1640q110 0 184 -46q84 -54 84 -150q0 -60 -49 -111q-42 -44 -110 -71l-3 -2q134 -64 134 -177q0 -128 -120 -200q-103 -62 -247 -62q-299 0 -299 205q0 76 57 138q50 53 131 83l2 2q-102 55 -102 146q0 112 102 181q95 64 234 64h2zM487 973q102 0 102 96
q0 73 -96 107q-103 -28 -103 -119q0 -84 95 -84h2zM552 1493q-84 0 -84 -78q0 -62 92 -96q82 23 82 96q0 78 -88 78h-2z" />
    <glyph glyph-name="nine" unicode="9" horiz-adv-x="731" 
d="M205 993q11 -1 21 -2q14 -1 27 -1q35 -2 60 -1q73 3 143 37q93 40 130 121l-3 2q-59 -47 -155 -47q-102 0 -168 57q-72 63 -72 170q0 132 108 225q107 91 255 91q138 0 220 -84q79 -81 79 -211q0 -131 -64 -247q-56 -102 -149 -175q-136 -104 -346 -111q-41 0 -111 4z
M530 1483q-114 0 -114 -144q0 -94 94 -94q57 0 94 41q12 12 18 41l2 10q1 7 2 13q3 15 3 28q0 105 -97 105h-2z" />
    <glyph glyph-name="colon" unicode=":" horiz-adv-x="578" 
d="M122 182l100 90q17 15 32 15q14 0 30 -17l76 -93q9 -15 9 -27v-4q-2 -15 -19 -32l-96 -95q-25 -21 -34 -21q-17 0 -28 15l-83 108q-7 13 -7 24v4q2 16 20 33zM189 853l100 90q17 15 32 15q14 0 30 -18l76 -92q9 -15 9 -27v-4q-2 -15 -19 -32l-96 -95q-25 -21 -34 -21
q-17 0 -28 15l-83 108q-7 12 -7 24v3q2 17 20 34z" />
    <glyph glyph-name="semicolon" unicode=";" horiz-adv-x="578" 
d="M218 264q78 0 118 -70q31 -56 31 -120q0 -16 -2 -33q-12 -106 -99.5 -228t-198.5 -122l5 48q78 43 109 191q1 13 1 24q0 99 -111 137l4 39zM189 853l100 90q17 15 32 15q14 0 30 -18l76 -92q9 -15 9 -27v-4q-2 -15 -19 -32l-96 -95q-25 -21 -34 -21q-17 0 -28 15l-83 108
q-7 12 -7 24v3q2 17 20 34z" />
    <glyph glyph-name="semicolon" unicode="&#x37e;" horiz-adv-x="578" 
d="M218 264q78 0 118 -70q31 -56 31 -120q0 -16 -2 -33q-12 -106 -99.5 -228t-198.5 -122l5 48q78 43 109 191q1 13 1 24q0 99 -111 137l4 39zM189 853l100 90q17 15 32 15q14 0 30 -18l76 -92q9 -15 9 -27v-4q-2 -15 -19 -32l-96 -95q-25 -21 -34 -21q-17 0 -28 15l-83 108
q-7 12 -7 24v3q2 17 20 34z" />
    <glyph glyph-name="less" unicode="&#x3c;" 
d="M1056 1068l-673 -353l592 -350l-24 -204l-868 518l8 73l988 521z" />
    <glyph glyph-name="equal" unicode="=" 
d="M92 767l22 200h928l-22 -200h-928zM62 467l22 200h928l-22 -200h-928z" />
    <glyph glyph-name="greater" unicode="&#x3e;" 
d="M152 1273l868 -521l-8 -73l-988 -518l23 204l673 350l-592 353z" />
    <glyph glyph-name="question" unicode="?" horiz-adv-x="844" 
d="M164 1326q54 44 122.5 80.5t168.5 36.5q153 0 226.5 -69t73.5 -160q0 -161 -223.5 -372.5t-224.5 -313.5q0 -93 15 -198h-77q-30 103 -30 193q0 132 144 335t144 348q0 60 -32 96t-92 36q-85 0 -222 -101zM151 172l100 90q17 15 32 15q14 0 30 -18l76 -92q9 -15 9 -27v-4
q-2 -15 -19 -32l-96 -95q-25 -21 -34 -21q-17 0 -28 15l-83 108q-7 12 -7 24v3q2 17 20 34z" />
    <glyph glyph-name="at" unicode="@" horiz-adv-x="2019" 
d="M1104 255l66 582q0 31 -31 63.5t-92 32.5q-41 -4 -97 -63.5t-92.5 -174.5t-39.5 -240q0 -176 58.5 -303t129.5 -127q73 7 98 230zM1413 958l-86 -741q-10 -67 -10 -105q0 -52 43 -52q104 0 231.5 195t127.5 457q0 298 -166 477q-168 182 -427 182q-189 0 -381 -131
t-299.5 -349t-114.5 -448v-28q0 -216 88 -401q94 -198 249 -284.5t274 -86.5q322 0 648 232l-12 -106q-334 -197 -631 -197q-257 0 -473.5 129t-315.5 351q-74 168 -74 349q0 304 167.5 549t413 369.5t495.5 124.5q386 0 620 -243q189 -197 189 -467q0 -312 -224.5 -537.5
t-406.5 -225.5q-113 0 -156 88q-45 -88 -204 -88q-123 0 -219.5 72.5t-131 175t-34.5 193.5q0 193 75 314t185.5 191.5t228.5 70.5q68 0 116.5 -40.5t62.5 -40.5q15 0 21 51h131z" />
    <glyph glyph-name="A" unicode="A" horiz-adv-x="842" 
d="M329 1127l-99 -221h-188l403 853h228l97 -853h-186l-17 221h-238zM560 1267l-16 183l-13 167h-2l-33 -84q-20 -54 -33 -83l-83 -183h180z" />
    <glyph glyph-name="B" unicode="B" horiz-adv-x="747" 
d="M188 1766q49 9 103 14q61 6 121 6q135 0 211 -46q98 -51 98 -156q0 -77 -51 -133q-46 -50 -121 -71v-4q134 -42 134 -187q0 -66 -33 -120q-29 -48 -83 -84q-104 -70 -320 -70q-138 0 -215 17zM307 1438h61q168 0 168 116q0 89 -120 89q-48 0 -71 -6zM234 1063
q32 -4 69 -4q81 0 131 32q57 35 57 103q0 60 -46 87q-38 24 -109 24h-57z" />
    <glyph glyph-name="C" unicode="C" horiz-adv-x="758" 
d="M621 947q-37 -16 -90 -26q-61 -11 -132 -11q-168 0 -269 94q-102 95 -102 257q0 135 58 245q56 103 154 168q128 88 309 88q62 0 117 -12q45 -10 66 -23l-49 -144q-21 11 -58 18q-44 9 -94 9q-113 0 -191 -63q-116 -92 -116 -266q0 -219 223 -219q93 0 159 27z" />
    <glyph glyph-name="D" unicode="D" horiz-adv-x="903" 
d="M195 1738q105 18 228 18q198 0 302 -89q107 -90 109 -259q0 -243 -170 -379q-139 -110 -396 -110q-69 0 -135 5q-56 5 -91 11zM244 1067q42 -5 78 -5q150 0 234 97q86 97 86 248q0 207 -219 207q-50 0 -74 -5z" />
    <glyph glyph-name="E" unicode="E" horiz-adv-x="700" 
d="M581 1269h-303l-39 -205h339l-29 -154h-520l161 845h503l-30 -154h-320l-36 -181h303z" />
    <glyph glyph-name="F" unicode="F" horiz-adv-x="682" 
d="M175 1759h492l-30 -158h-311l-39 -203h293l-30 -157h-291l-64 -348h-179z" />
    <glyph glyph-name="G" unicode="G" horiz-adv-x="827" 
d="M688 957q-61 -20 -120 -31q-79 -16 -150 -16q-176 0 -279 92q-105 93 -105 258q0 236 171 381q146 122 367 122q75 0 140 -13q53 -10 82 -24l-53 -151q-33 14 -75 23q-51 11 -102 11q-127 0 -213 -67q-120 -95 -120 -270q0 -211 214 -211q56 0 90 15l34 176h-129l27 143
h303z" />
    <glyph glyph-name="H" unicode="H" horiz-adv-x="859" 
d="M372 1755l-60 -330h297l61 330h175l-155 -845h-175l64 355h-296l-66 -355h-175l155 845h175z" />
    <glyph glyph-name="I" unicode="I" horiz-adv-x="362" 
d="M380 1755l-192 -849h-216l192 849h216z" />
    <glyph glyph-name="J" unicode="J" horiz-adv-x="601" 
d="M419 1746h187l-110 -548q-31 -158 -109 -227t-227 -69q-94 0 -142 20l35 151q49 -15 105 -15q124 0 157 162z" />
    <glyph glyph-name="K" unicode="K" horiz-adv-x="798" 
d="M173 1751h166l-66 -381h3q15 22 36 51l253 330h210l-319 -369l182 -485h-182l-132 371l-84 -86l-50 -285h-166z" />
    <glyph glyph-name="L" unicode="L" horiz-adv-x="689" 
d="M229 1751h203l-147 -698h366l-34 -160h-569z" />
    <glyph glyph-name="M" unicode="M" horiz-adv-x="1052" 
d="M719 897l49 352q12 82 24 155q15 94 30 178h-3q-35 -86 -70 -167q-37 -86 -69 -154l-165 -350h-135l-28 346q-5 66 -10 155q-4 77 -8 170h-3l-51 -258q-9 -43 -16 -75l-80 -352h-158l202 854h232l27 -355l10 -170q2 -39 2 -72h5q21 65 53 143l56 130l149 324h234
l-109 -854h-168z" />
    <glyph glyph-name="N" unicode="N" horiz-adv-x="863" 
d="M29 897l158 858h209l110 -327q44 -147 75 -293h4q5 132 38 308l57 312h165l-157 -858h-184l-116 342q-54 170 -81 300l-4 -2q-14 -120 -54 -340l-55 -300h-165z" />
    <glyph glyph-name="O" unicode="O" horiz-adv-x="896" 
d="M735 1668q81 -93 81 -247q0 -246 -141 -392q-117 -119 -292 -119q-149 0 -237 101q-83 95 -83 245q0 246 145 393q119 118 289 118q152 0 238 -99zM341 1556q-46 -47 -73 -134q-26 -81 -26 -160q0 -92 40 -146q43 -58 126 -58q73 0 132 60q44 46 72 138q25 82 25 160
q0 89 -34 140q-40 63 -126 63q-76 0 -136 -63z" />
    <glyph glyph-name="P" unicode="P" horiz-adv-x="747" 
d="M204 1721q85 22 211 22q62 0 113 -12q62 -14 102 -44q88 -62 88 -177q0 -75 -31 -138q-29 -57 -79 -97q-96 -77 -259 -77q-19 0 -39 2l-31 3l-56 -301h-169zM305 1348q30 -6 66 -6q77 0 126 45q47 43 47 107q0 57 -37 83q-31 24 -87 24q-45 0 -69 -7z" />
    <glyph glyph-name="Q" unicode="Q" horiz-adv-x="886" 
d="M715 789q-85 23 -178 56q-85 29 -149 57q-29 12 -43 17q-12 3 -18 3q-132 10 -216 97q-88 92 -88 238q0 227 152 368q131 124 329 124q170 0 265 -100q88 -92 88 -235q0 -103 -38 -201q-40 -102 -110 -166q-52 -49 -127 -78v-3q48 -11 92 -21q57 -12 108 -20zM331 1547
q-50 -47 -81 -134q-28 -80 -28 -156q0 -89 43 -139q48 -55 139 -55q83 0 145 57q49 46 81 135q28 81 28 158q0 80 -36 131q-46 62 -139 62q-87 0 -152 -59z" />
    <glyph glyph-name="R" unicode="R" horiz-adv-x="762" 
d="M180 1721q95 22 233 22q68 0 123 -11q64 -12 107 -38q97 -55 97 -164q0 -89 -57 -152q-52 -57 -141 -85v-5q68 -28 83 -153l6 -63q1 -6 1 -9q5 -45 7 -69q9 -75 19 -97h-192q-11 33 -26 198q-10 133 -118 133h-57l-65 -331h-185zM293 1363h77q76 0 126 40q49 39 49 101
q0 97 -133 97q-47 0 -73 -6z" />
    <glyph glyph-name="S" unicode="S" horiz-adv-x="643" 
d="M86 1098q85 -50 187 -50q53 0 88 23q38 25 38 69q0 57 -107 112q-35 19 -61 37q-32 23 -53 46q-50 56 -50 127q0 117 91 188q88 69 221 69q65 0 117 -13q39 -10 70 -27l-53 -141q-25 14 -59 24q-45 12 -89 11q-120 0 -120 -83q0 -31 33 -59q13 -12 36 -26l46 -26
q77 -40 115 -89q43 -53 43 -120q0 -127 -95 -200q-88 -68 -227 -68q-78 2 -141 19q-55 15 -86 39z" />
    <glyph glyph-name="T" unicode="T" horiz-adv-x="686" 
d="M239 1609h-245l34 164h690l-33 -164h-248l-142 -712h-198z" />
    <glyph glyph-name="U" unicode="U" horiz-adv-x="846" 
d="M327 1742l-94 -471q-8 -39 -8 -97q0 -117 123 -117q146 0 188 213l93 472h182l-92 -465q-73 -367 -394 -367q-282 -2 -282 261q0 50 13 114l89 457h182z" />
    <glyph glyph-name="V" unicode="V" horiz-adv-x="795" 
d="M151 893l-103 841h182l37 -401q12 -125 19 -258h3q21 58 51 128q26 61 59 132l184 399h197l-425 -841h-204z" />
    <glyph glyph-name="W" unicode="W" horiz-adv-x="1140" 
d="M117 897l-31 854h174l1 -379q-1 -48 -1 -76q-1 -41 -1 -73l-3 -128h2q38 114 95 273l145 383h189l-3 -381q-1 -143 -7 -272h3q44 142 88 273l140 380h181l-355 -854h-188l-6 350q0 139 7 284h-3l-69 -212l-29 -76l-137 -346h-192z" />
    <glyph glyph-name="X" unicode="X" horiz-adv-x="783" 
d="M456 897l-57 176l-23 74q-12 41 -21 74h-3l-39 -72q-25 -46 -47 -83l-97 -169h-215l312 445l-146 426h189l50 -167l21 -73q10 -38 18 -71h4l41 78l38 69l97 164h213l-305 -428l160 -443h-190z" />
    <glyph glyph-name="Y" unicode="Y" horiz-adv-x="755" 
d="M123 897l64 350l-161 509h190l53 -218l32 -155h2l38 72q25 46 47 84l124 217h212l-358 -505l-65 -354h-178z" />
    <glyph glyph-name="Z" unicode="Z" horiz-adv-x="774" 
d="M-20 1000l512 599v5h-359l31 160h613l-22 -116l-503 -590v-5h394l-30 -160h-656z" />
    <glyph glyph-name="bracketleft" unicode="[" horiz-adv-x="758" 
 />
    <glyph glyph-name="backslash" unicode="\" horiz-adv-x="569" 
 />
    <glyph glyph-name="bracketright" unicode="]" horiz-adv-x="758" 
 />
    <glyph glyph-name="asciicircum" unicode="^" horiz-adv-x="1014" 
 />
    <glyph glyph-name="underscore" unicode="_" horiz-adv-x="1024" 
d="M0 -100h1024v-100h-1024v100z" />
    <glyph glyph-name="grave" unicode="`" horiz-adv-x="1024" 
d="M757 1079h-85l-288 175q-33 22 -51 42q-15 16 -15 45q0 9 1 18q3 30 25 52.5t60 22.5t65.5 -16.5t60.5 -53.5z" />
    <glyph glyph-name="a" unicode="a" horiz-adv-x="653" 
d="M371 910q0 22 3 54l4 59h-3q-36 -67 -87 -99q-45 -27 -97 -27q-75 0 -121 54q-46 55 -46 144q0 159 95 270q51 59 123 91q78 35 176 35q97 0 182 -28l-58 -297q-26 -137 -22 -256h-149zM418 1360q-25 4 -44 4q-75 0 -130 -79q-51 -74 -51 -159q0 -94 66 -94q41 0 75 46
q41 53 58 150z" />
    <glyph glyph-name="b" unicode="b" horiz-adv-x="741" 
d="M382 1765l-74 -337h3q73 83 192 83q92 0 143 -63q46 -57 46 -143q0 -160 -101 -278q-54 -62 -129 -97q-82 -37 -183 -37q-222 0 -222 166q0 25 4 54l10 55l126 597h185zM253 1155q-7 -39 -6 -65q2 -65 70 -65q75 0 131 83q51 76 51 160q0 103 -81 103q-118 0 -153 -167z
" />
    <glyph glyph-name="c" unicode="c" horiz-adv-x="639" 
d="M500 923q-62 -30 -161 -30q-108 0 -173 61q-67 63 -67 171q0 151 104 254q106 103 267 103q66 0 115 -18l-41 -128q-34 13 -76 13q-87 0 -142 -63q-51 -59 -51 -143q0 -116 111 -116q33 0 64 7q22 5 49 16z" />
    <glyph glyph-name="d" unicode="d" horiz-adv-x="700" 
d="M713 1735l-123 -622q-25 -124 -28 -228h-164l9 95h-3q-38 -56 -93 -83q-49 -25 -105 -25q-81 0 -133 57q-56 61 -56 164q0 159 105 272q110 119 277 119q47 0 83 -14l52 265h179zM456 1333q-26 20 -71 20q-77 0 -131 -74q-51 -70 -51 -158q0 -110 84 -110q42 0 80 40
q42 45 58 124z" />
    <glyph glyph-name="e" unicode="e" horiz-adv-x="650" 
d="M509 942q-47 -23 -110 -35q-53 -10 -108 -10q-253 0 -253 241q0 138 91 241q98 112 250 112q90 0 146 -45q57 -47 57 -125q0 -105 -102 -152q-94 -44 -277 -40q0 -33 18 -58q34 -44 112 -44q88 0 164 36zM421 1321q0 48 -64 48q-55 0 -94 -39q-33 -32 -43 -78
q201 -2 201 68v1z" />
    <glyph glyph-name="f" unicode="f" horiz-adv-x="454" 
d="M7 906l83 450h-74l25 129h73l6 30q9 57 30 101q25 54 65 87q63 56 162 56q57 0 89 -14l-29 -136q-20 9 -55 9q-78 0 -97 -105l-6 -28h113l-25 -129h-111l-83 -450h-166z" />
    <glyph glyph-name="g" unicode="g" horiz-adv-x="664" 
d="M110 913q46 -27 128 -27q58 0 93 28q39 32 53 102l8 41h-2q-56 -72 -140 -72q-71 0 -114 51q-42 49 -43 123q0 130 84 222q92 100 244 100q102 0 181 -34l-74 -403q-14 -76 -36 -125q-26 -59 -67 -92q-37 -29 -90 -43q-45 -12 -99 -12q-105 0 -159 31zM446 1362
q-20 9 -52 9q-63 0 -107 -60q-42 -57 -42 -130q0 -85 66 -85q86 0 110 135z" />
    <glyph glyph-name="h" unicode="h" horiz-adv-x="632" 
d="M-12 897l161 847h172l-65 -338l3 -1q79 88 187 88q147 0 147 -157q0 -45 -11 -105l-63 -334h-173l60 320q8 39 8 72q0 66 -59 66q-107 0 -144 -191l-50 -267h-173z" />
    <glyph glyph-name="i" unicode="i" horiz-adv-x="329" 
d="M-8 897l116 557h178l-115 -557h-179zM218 1524q-86 0 -86 80q2 93 104 93q89 0 89 -81q0 -92 -106 -92h-1z" />
    <glyph glyph-name="j" unicode="j" horiz-adv-x="433" 
d="M397 1482l-117 -542q-29 -140 -89 -199q-61 -60 -176 -60q-50 0 -90 9l22 125q20 -3 42 -3q37 0 59 22q28 28 42 98l118 550h189zM319 1552q-90 0 -90 81q0 94 109 94q94 0 94 -82q0 -93 -111 -93h-2z" />
    <glyph glyph-name="k" unicode="k" horiz-adv-x="683" 
d="M27 906l164 825h174l-97 -494h2l54 65l153 172h216l-254 -233l166 -335h-196l-105 243l-66 -61l-36 -182h-175z" />
    <glyph glyph-name="l" unicode="l" horiz-adv-x="327" 
d="M-53 893l176 851h187l-176 -851h-187z" />
    <glyph glyph-name="m" unicode="m" horiz-adv-x="1017" 
d="M72 902l71 394q9 51 17 103q6 41 12 87h144l-11 -94h3q73 107 194 107q62 0 99 -36q31 -30 35 -74q75 110 196 110q139 0 139 -156q0 -47 -10 -101l-62 -340h-161l56 319q9 42 9 71q0 70 -57 70q-96 0 -133 -195l-47 -265h-162l58 321q8 42 8 67q0 72 -53 72
q-43 0 -82 -56q-40 -56 -55 -141l-47 -263h-161z" />
    <glyph glyph-name="n" unicode="n" horiz-adv-x="679" 
d="M38 902l75 397q10 51 19 105l13 87h156l-13 -98h3q80 111 209 111q152 0 152 -160q0 -42 -10 -100l-65 -342h-175l62 326q6 34 6 67q0 69 -59 69q-45 0 -86 -51q-45 -57 -62 -150l-50 -261h-175z" />
    <glyph glyph-name="o" unicode="o" horiz-adv-x="690" 
d="M585 1429q63 -67 63 -170q0 -161 -96 -265q-95 -105 -243 -105q-108 0 -175 66q-66 67 -66 175q0 155 94 261q96 108 245 108q111 0 178 -70zM277 1285q-37 -71 -36 -151q0 -114 91 -114q64 0 106 81q37 72 37 157q0 46 -20 76q-23 35 -70 35q-66 0 -108 -84z" />
    <glyph glyph-name="p" unicode="p" horiz-adv-x="690" 
d="M30 694l110 569q9 46 19 113q9 59 15 107h150l-10 -86h2q72 94 184 94q88 0 138 -63q45 -57 45 -148q0 -151 -91 -259q-95 -113 -240 -113q-66 0 -106 22h-2l-47 -236h-167zM269 1059q30 -27 78 -27q65 0 113 76q47 73 47 159q0 38 -17 63q-19 29 -57 29
q-108 0 -143 -180z" />
    <glyph glyph-name="q" unicode="q" horiz-adv-x="667" 
d="M325 699l68 302h-3q-62 -92 -174 -92q-78 0 -126 57t-48 150q0 145 95 249q50 55 120 84q76 33 169 33q55 0 115 -10l50 -10l44 -11l-144 -752h-166zM452 1346q-24 13 -65 13q-73 0 -124 -73q-48 -67 -48 -150q0 -97 70 -97q106 0 138 160z" />
    <glyph glyph-name="r" unicode="r" horiz-adv-x="451" 
d="M-14 897l67 348q6 31 11 67q5 30 9 66l11 104h153l-11 -120h3q71 133 191 133q22 0 33 -1l-34 -168l-28 2q-79 0 -128 -64q-41 -53 -59 -149l-42 -218h-176z" />
    <glyph glyph-name="s" unicode="s" horiz-adv-x="499" 
d="M52 1066q31 -16 67 -26q46 -14 83 -14q73 0 73 51q0 39 -72 74q-55 27 -86 61q-36 41 -36 91q0 88 71 142q70 54 181 54q98 0 148 -29l-40 -119q-23 10 -48 17q-33 8 -67 8q-75 0 -75 -50q0 -32 71 -65q57 -29 87 -61q40 -42 40 -96q0 -96 -74 -150q-72 -53 -188 -52
q-121 4 -176 46z" />
    <glyph glyph-name="t" unicode="t" horiz-adv-x="499" 
d="M382 1678l-35 -160h145l-29 -132h-146l-46 -200q-11 -46 -11 -75q0 -49 57 -49h28l28 2l-23 -136q-40 -13 -119 -13q-177 0 -177 128q0 44 14 109l53 234h-87l28 132h88l25 111z" />
    <glyph glyph-name="u" unicode="u" horiz-adv-x="701" 
d="M671 1497l-76 -401l-31 -194h-152l11 98h-3q-85 -111 -202 -111q-150 0 -150 167q0 50 12 109l61 332h173l-59 -319q-8 -46 -8 -77q0 -70 58 -70q105 0 142 191l51 275h173z" />
    <glyph glyph-name="v" unicode="v" horiz-adv-x="646" 
d="M198 1488l27 -260l9 -92q6 -47 7 -70h5q10 29 27 69l40 91l124 262h200l-340 -595h-182l-103 595h186z" />
    <glyph glyph-name="w" unicode="w" horiz-adv-x="962" 
d="M271 1493l1 -250q0 -47 -1 -95q-2 -39 -5 -94h3q12 41 32 92q8 19 18 45l128 302h135l15 -274l2 -72q0 -51 -2 -93h3q25 87 62 192l95 247h166l-272 -591h-155l-16 205q-4 83 -4 190h-3l-35 -102q-17 -46 -31 -79l-95 -214h-155l-53 591h167z" />
    <glyph glyph-name="x" unicode="x" horiz-adv-x="581" 
d="M234 1475l33 -86q21 -58 34 -97h4l58 92l60 91h184l-230 -280l127 -298h-176l-34 92q-19 51 -35 105h-3l-18 -32q-4 -6 -7 -11l-31 -54l-65 -100h-185l236 299l-128 279h176z" />
    <glyph glyph-name="y" unicode="y" horiz-adv-x="599" 
d="M221 1488l34 -248l18 -136h2l21 56q14 40 28 77l101 251h173l-199 -409q-111 -228 -213 -327q-44 -43 -100 -70q-44 -21 -79 -27l-36 144q24 7 45 17q28 12 49 28q60 43 90 99q7 10 3 28l-110 517h173z" />
    <glyph glyph-name="z" unicode="z" horiz-adv-x="593" 
d="M13 1010l194 202q60 62 147 134l1 3h-256l27 139h468l-20 -108l-191 -198q-76 -79 -145 -134v-3h280l-28 -139h-497z" />
    <glyph glyph-name="braceleft" unicode="{" horiz-adv-x="1024" 
d="M186 703q182 5 235 65t62 134l54 468q7 67 100 141t224 74h146l-7 -62h-128q-40 0 -80.5 -27t-48.5 -92l-58 -500q-9 -76 -83.5 -155.5t-156.5 -79.5v-1q82 -1 139 -80q49 -68 49 -134q0 -11 -1 -21l-58 -500q-1 -10 -1 -20q0 -48 29 -71q34 -28 74 -28h128l-7 -62h-146
q-131 0 -206 74q-70 68 -70 131q0 6 1 11l53 467q2 13 2 26q0 58 -33 107q-40 60 -220 65z" />
    <glyph glyph-name="bar" unicode="|" horiz-adv-x="1024" 
d="M425 1578h235v-2006h-235v2006z" />
    <glyph glyph-name="braceright" unicode="}" horiz-adv-x="1024" 
d="M995 633q-181 -5 -234.5 -65t-61.5 -133l-54 -467q-9 -68 -101.5 -142t-223.5 -74h-146l7 62h128q40 0 80.5 27.5t49.5 91.5l56 500q9 76 84 155t158 80v1q-83 0 -139 80q-49 69 -49 136q0 10 1 19l58 500q1 10 1 19q0 50 -29 73q-34 27 -74 27h-128l7 62h146
q131 0 207 -74q69 -67 69 -128q0 -7 -1 -13l-54 -468q-1 -12 -1 -24q0 -60 33 -110q39 -60 219 -65z" />
    <glyph glyph-name="asciitilde" unicode="~" 
d="M290 726q-56 0 -56 -83q0 -38 20 -116h-50q-84 111 -84 188q0 60 48 103.5t122 43.5q83 0 237 -89t209 -89q56 0 56 83q0 38 -20 116h50q84 -111 84 -188q0 -60 -48 -103.5t-122 -43.5q-83 0 -237 89t-209 89z" />
    <glyph glyph-name="exclamdown" unicode="&#xa1;" horiz-adv-x="672" 
 />
    <glyph glyph-name="cent" unicode="&#xa2;" horiz-adv-x="1139" 
 />
    <glyph glyph-name="sterling" unicode="&#xa3;" 
d="M1001 1224q0 67 -70 105.5t-185 38.5q-109 0 -190.5 -94t-81.5 -303q0 -73 28 -197h373l-9 -80h-348l25 -112q6 -32 6 -65q0 -190 -190 -407h415q95 0 169 133h70l-140 -253h-801l7 54q229 254 229 470q0 35 -6 68l-26 112h-148l9 80h120q-32 129 -32 191
q0 189 159.5 344t370.5 155h4q87 0 212 -16q122 -16 122 -38l-22 -186h-70z" />
    <glyph glyph-name="currency" unicode="&#xa4;" 
d="M454 577q31 -29 73 -40q20 -5 42 -5q21 0 43 5q44 11 81 40q42 34 66 87q16 35 16 71q0 17 -4 35q-12 53 -46 87q-31 29 -73 40q-21 5 -41 5q-22 0 -45 -6q-44 -11 -80 -39q-41 -33 -65 -86q-17 -36 -17 -72q0 -17 4 -34q11 -54 46 -88zM308 904l-103 117l127 115
l111 -125q12 8 77 26q55 17 110 17q50 0 99 -14q63 -20 75 -28l138 124l101 -115l-129 -116q29 -52 39 -107q4 -24 4 -48q0 -57 -22 -114q-24 -55 -65 -107l103 -116l-127 -115l-110 124q-14 -9 -81 -28q-53 -14 -104 -14t-101 14q-64 19 -76 28l-138 -124l-101 115l130 116
q-30 52 -39 108q-4 24 -4 48q0 58 24 115q22 54 62 104z" />
    <glyph glyph-name="yen" unicode="&#xa5;" 
d="M572 744l-199 468q-65 153 -144 153h-62l8 69h213q160 0 259 -235l159 -370l254 369q64 95 64 135q0 32 -38 32h-62l8 69h449l-8 -69h-69q-87 0 -191 -152l-320 -469h178l-10 -80h-181l-8 -80h180l-9 -80h-180l-22 -209q-6 -53 -6 -93q0 -133 68 -133h111l-8 -69h-688
l8 69h99q100 0 126 220l25 215h-183l9 80h183l9 80h-183l10 80h151z" />
    <glyph glyph-name="brokenbar" unicode="&#xa6;" horiz-adv-x="1024" 
d="M432 361h160v-789h-160v789zM432 1578h160v-789h-160v789z" />
    <glyph glyph-name="section" unicode="&#xa7;" horiz-adv-x="1024" 
d="M548 332q134 76 147 212q1 12 1 23q0 74 -52 114q-61 46 -133 46q-54 0 -98.5 -38t-53.5 -118q-1 -9 -1 -17q0 -119 190 -222zM385 -339q89 4 155 57q78 63 90 170q1 7 1 13q0 124 -275 263q-124 69 -168 143q-36 58 -36 133q0 19 2 38q16 141 116 230q84 74 187 91
q-147 68 -197 151q-42 67 -42 145q0 17 2 35q16 141 118.5 235t279.5 95q135 0 216 -19q78 -18 78 -43l-23 -202h-77q1 9 1 18q0 80 -50 119q-56 43 -173 46q-67 0 -111.5 -38t-53.5 -118q-1 -8 -1 -16q0 -129 246 -253q150 -71 198 -148q37 -62 37 -142q0 -20 -2 -41
q-19 -164 -133 -275q-57 -44 -117 -71q110 -61 153 -131q34 -55 34 -130q0 -21 -3 -44q-19 -164 -152 -278.5t-347 -115.5q-111 0 -191 20q-78 19 -78 43l23 201h87q-1 -9 -1 -18q0 -79 50 -117q54 -43 157 -46z" />
    <glyph glyph-name="dieresis" unicode="&#xa8;" horiz-adv-x="1024" 
d="M220 1298l92 82q16 14 29 14t28 -16l69 -85q8 -13 8 -25v-3q-1 -14 -17 -30l-88 -87q-22 -19 -30 -19q-16 0 -27 14l-75 99q-7 12 -7 22v3q2 15 18 31zM604 1298l91 83q16 13 30 13q13 0 27 -16l70 -84q8 -14 8 -25v-4q-1 -13 -17 -29l-88 -87q-23 -20 -31 -20
q-16 0 -26 14l-75 99q-7 12 -7 22v4q2 14 18 30z" />
    <glyph glyph-name="copyright" unicode="&#xa9;" horiz-adv-x="1674" 
d="M1220 465h98v-102q0 -37 -79.5 -79.5t-281.5 -44.5q-125 0 -251.5 70.5t-188 182.5t-61.5 227q0 114 62.5 227t190 182.5t269.5 69.5q78 0 141 -22q14 -5 22 -5q12 0 12 10q0 7 -5 18h83l75 -207h-84q-85 96 -148 121q-57 21 -112 21h-14q-61 -5 -129 -58.5t-107 -162.5
q-32 -87 -32 -180q0 -23 2 -47q11 -119 65.5 -215t129.5 -136q60 -33 114 -33q88 1 157.5 41.5t71.5 121.5zM940 1462q152 0 291 -60.5t243 -169.5q99 -102 152.5 -237.5t53.5 -276.5q0 -142 -53.5 -275.5t-156.5 -239.5q-105 -110 -243 -168.5t-294 -58.5q-153 0 -289 59.5
t-242 169.5q-103 105 -155.5 237t-52.5 276q0 143 52.5 276.5t153.5 237.5q102 109 242.5 169.5t297.5 60.5zM461 1193q-86 -84 -140.5 -209t-54.5 -266q0 -142 54.5 -265.5t154.5 -219.5q98 -91 214.5 -138t244.5 -47q130 0 248 46.5t215 136.5q100 97 155.5 222t55.5 265
q0 139 -55.5 266t-151.5 220q-96 91 -215.5 138.5t-246.5 47.5q-130 0 -250.5 -47.5t-227.5 -149.5z" />
    <glyph glyph-name="ordfeminine" unicode="&#xaa;" horiz-adv-x="648" 
 />
    <glyph glyph-name="guillemotleft" unicode="&#xab;" horiz-adv-x="987" 
d="M174 479l389 313h48l-5 -47l-236 -266l174 -266l-5 -47h-48zM485 479l389 313h48l-5 -47l-236 -266l174 -266l-5 -47h-48z" />
    <glyph glyph-name="logicalnot" unicode="&#xac;" 
d="M86 773h916v-503l-1 -1h-174v392h-741v112z" />
    <glyph glyph-name="registered" unicode="&#xae;" horiz-adv-x="1674" 
d="M838 1105v-393q0 -69 23 -86t49 -17h3q27 1 44 31t35 99q13 54 13 111q0 16 -1 33q-4 74 -29.5 135t-48 74t-43.5 13h-45zM1077 574l63 -100q96 -141 169 -141h22v-61h-367v61h20q14 0 14 13q0 30 -67 125l-35 59q-31 1 -58 17v-88q0 -126 52 -126h21v-61h-368v61h20
q53 0 53 126v520q0 126 1 126h-55v61h369q87 -1 161 -53q65 -43 95.5 -112t30.5 -140q0 -69 -30 -137t-111 -150zM940 1462q152 0 291 -60.5t243 -169.5q99 -102 152.5 -237.5t53.5 -276.5q0 -142 -53.5 -275.5t-156.5 -239.5q-105 -110 -243 -168.5t-294 -58.5
q-153 0 -289 59.5t-242 169.5q-103 105 -155.5 237t-52.5 276q0 143 52.5 276.5t153.5 237.5q102 109 242.5 169.5t297.5 60.5zM461 1193q-86 -84 -140.5 -209t-54.5 -266q0 -142 54.5 -265.5t154.5 -219.5q98 -91 214.5 -138t244.5 -47q130 0 248 46.5t215 136.5
q100 97 155.5 222t55.5 265q0 139 -55.5 266t-151.5 220q-96 91 -215.5 138.5t-246.5 47.5q-130 0 -250.5 -47.5t-227.5 -149.5z" />
    <glyph glyph-name="macron" unicode="&#xaf;" horiz-adv-x="670" 
 />
    <glyph glyph-name="degree" unicode="&#xb0;" horiz-adv-x="722" 
d="M681 1139q0 82 -56 128.5t-118 46.5t-119 -46.5t-57 -128.5q0 -80 57 -127.5t119 -47.5t118 47t56 128zM506 1441q134 0 218 -93.5t84 -209.5q0 -114 -85 -207.5t-219 -93.5t-217 92t-83 209q0 118 84 210.5t218 92.5z" />
    <glyph glyph-name="plusminus" unicode="&#xb1;" horiz-adv-x="1014" 
 />
    <glyph glyph-name="uni00B2" unicode="&#xb2;" horiz-adv-x="1014" 
 />
    <glyph glyph-name="uni00B3" unicode="&#xb3;" horiz-adv-x="1014" 
 />
    <glyph glyph-name="acute" unicode="&#xb4;" horiz-adv-x="1024" 
d="M678 1364q42 37 73 53.5t69 16.5t55 -22q14 -20 14 -44v-9q-6 -44 -29 -64t-61 -42l-329 -177h-85z" />
    <glyph glyph-name="mu" unicode="&#xb5;" horiz-adv-x="1180" 
 />
    <glyph glyph-name="paragraph" unicode="&#xb6;" horiz-adv-x="1024" 
d="M1005 1441v-82h-127v-1365h-118v1365h-130v-1365h-160v700q-161 7 -269 117.5t-108 254.5q0 170 114.5 272.5t316.5 102.5h481z" />
    <glyph glyph-name="periodcentered" unicode="&#xb7;" horiz-adv-x="553" 
d="M147 717q0 54 38 92t92 38t92 -38t38 -92t-38 -92t-92 -38t-92 38t-38 92z" />
    <glyph glyph-name="periodcentered" unicode="&#x2219;" horiz-adv-x="553" 
d="M147 717q0 54 38 92t92 38t92 -38t38 -92t-38 -92t-92 -38t-92 38t-38 92z" />
    <glyph glyph-name="cedilla" unicode="&#xb8;" horiz-adv-x="1068" 
d="M44 -313q81 -38 139 -38q55 0 81 24t26 69q0 43 -24 68t-88 25q-24 0 -53 -4l92 169h77l-45 -88l35 2q98 0 146 -45q41 -39 41 -99q0 -100 -74.5 -149t-187.5 -49q-115 0 -207 38z" />
    <glyph glyph-name="uni00B9" unicode="&#xb9;" horiz-adv-x="1014" 
 />
    <glyph glyph-name="ordmasculine" unicode="&#xba;" horiz-adv-x="718" 
 />
    <glyph glyph-name="guillemotright" unicode="&#xbb;" horiz-adv-x="987" 
d="M460 166h-48l5 47l236 266l-174 266l5 47h48l317 -313zM149 166h-48l5 47l236 266l-174 266l5 47h48l317 -313z" />
    <glyph glyph-name="onequarter" unicode="&#xbc;" horiz-adv-x="1708" 
 />
    <glyph glyph-name="onehalf" unicode="&#xbd;" horiz-adv-x="1964" 
 />
    <glyph glyph-name="threequarters" unicode="&#xbe;" horiz-adv-x="1708" 
 />
    <glyph glyph-name="questiondown" unicode="&#xbf;" horiz-adv-x="748" 
 />
    <glyph glyph-name="Agrave" unicode="&#xc0;" horiz-adv-x="1540" 
 />
    <glyph glyph-name="Aacute" unicode="&#xc1;" horiz-adv-x="1540" 
 />
    <glyph glyph-name="Acircumflex" unicode="&#xc2;" horiz-adv-x="1540" 
 />
    <glyph glyph-name="Atilde" unicode="&#xc3;" horiz-adv-x="1540" 
 />
    <glyph glyph-name="Adieresis" unicode="&#xc4;" horiz-adv-x="1540" 
 />
    <glyph glyph-name="Aring" unicode="&#xc5;" horiz-adv-x="1540" 
 />
    <glyph glyph-name="AE" unicode="&#xc6;" horiz-adv-x="2118" 
 />
    <glyph glyph-name="Ccedilla" unicode="&#xc7;" horiz-adv-x="1399" 
 />
    <glyph glyph-name="Egrave" unicode="&#xc8;" horiz-adv-x="1151" 
 />
    <glyph glyph-name="Eacute" unicode="&#xc9;" horiz-adv-x="1151" 
 />
    <glyph glyph-name="Ecircumflex" unicode="&#xca;" horiz-adv-x="1151" 
 />
    <glyph glyph-name="Edieresis" unicode="&#xcb;" horiz-adv-x="1151" 
 />
    <glyph glyph-name="Igrave" unicode="&#xcc;" horiz-adv-x="657" 
 />
    <glyph glyph-name="Iacute" unicode="&#xcd;" horiz-adv-x="657" 
 />
    <glyph glyph-name="Icircumflex" unicode="&#xce;" horiz-adv-x="657" 
 />
    <glyph glyph-name="Idieresis" unicode="&#xcf;" horiz-adv-x="657" 
 />
    <glyph glyph-name="Eth" unicode="&#xd0;" horiz-adv-x="1518" 
 />
    <glyph glyph-name="Ntilde" unicode="&#xd1;" horiz-adv-x="1554" 
 />
    <glyph glyph-name="Ograve" unicode="&#xd2;" horiz-adv-x="1614" 
 />
    <glyph glyph-name="Oacute" unicode="&#xd3;" horiz-adv-x="1614" 
 />
    <glyph glyph-name="Ocircumflex" unicode="&#xd4;" horiz-adv-x="1614" 
 />
    <glyph glyph-name="Otilde" unicode="&#xd5;" horiz-adv-x="1614" 
 />
    <glyph glyph-name="Odieresis" unicode="&#xd6;" horiz-adv-x="1614" 
 />
    <glyph glyph-name="multiply" unicode="&#xd7;" 
d="M536 576l-287 -258l-125 142l287 257l-228 257l157 142l228 -258l287 258l125 -142l-287 -257l228 -257l-157 -142z" />
    <glyph glyph-name="Oslash" unicode="&#xd8;" horiz-adv-x="1614" 
 />
    <glyph glyph-name="Ugrave" unicode="&#xd9;" horiz-adv-x="1501" 
 />
    <glyph glyph-name="Uacute" unicode="&#xda;" horiz-adv-x="1501" 
 />
    <glyph glyph-name="Ucircumflex" unicode="&#xdb;" horiz-adv-x="1501" 
 />
    <glyph glyph-name="Udieresis" unicode="&#xdc;" horiz-adv-x="1501" 
 />
    <glyph glyph-name="Yacute" unicode="&#xdd;" horiz-adv-x="1233" 
 />
    <glyph glyph-name="Thorn" unicode="&#xde;" horiz-adv-x="1120" 
 />
    <glyph glyph-name="germandbls" unicode="&#xdf;" horiz-adv-x="1251" 
 />
    <glyph glyph-name="agrave" unicode="&#xe0;" horiz-adv-x="922" 
 />
    <glyph glyph-name="aacute" unicode="&#xe1;" horiz-adv-x="922" 
 />
    <glyph glyph-name="acircumflex" unicode="&#xe2;" horiz-adv-x="922" 
 />
    <glyph glyph-name="atilde" unicode="&#xe3;" horiz-adv-x="922" 
 />
    <glyph glyph-name="adieresis" unicode="&#xe4;" horiz-adv-x="922" 
 />
    <glyph glyph-name="aring" unicode="&#xe5;" horiz-adv-x="922" 
 />
    <glyph glyph-name="ae" unicode="&#xe6;" horiz-adv-x="1454" 
 />
    <glyph glyph-name="ccedilla" unicode="&#xe7;" horiz-adv-x="905" 
 />
    <glyph glyph-name="egrave" unicode="&#xe8;" horiz-adv-x="909" 
 />
    <glyph glyph-name="eacute" unicode="&#xe9;" horiz-adv-x="909" 
 />
    <glyph glyph-name="ecircumflex" unicode="&#xea;" horiz-adv-x="909" 
 />
    <glyph glyph-name="edieresis" unicode="&#xeb;" horiz-adv-x="909" 
 />
    <glyph glyph-name="igrave" unicode="&#xec;" horiz-adv-x="514" 
 />
    <glyph glyph-name="iacute" unicode="&#xed;" horiz-adv-x="514" 
 />
    <glyph glyph-name="icircumflex" unicode="&#xee;" horiz-adv-x="514" 
 />
    <glyph glyph-name="idieresis" unicode="&#xef;" horiz-adv-x="514" 
 />
    <glyph glyph-name="eth" unicode="&#xf0;" horiz-adv-x="1139" 
 />
    <glyph glyph-name="ntilde" unicode="&#xf1;" 
 />
    <glyph glyph-name="ograve" unicode="&#xf2;" horiz-adv-x="1010" 
 />
    <glyph glyph-name="oacute" unicode="&#xf3;" horiz-adv-x="1010" 
 />
    <glyph glyph-name="ocircumflex" unicode="&#xf4;" horiz-adv-x="1010" 
 />
    <glyph glyph-name="otilde" unicode="&#xf5;" horiz-adv-x="1010" 
 />
    <glyph glyph-name="odieresis" unicode="&#xf6;" horiz-adv-x="1010" 
 />
    <glyph glyph-name="divide" unicode="&#xf7;" 
d="M77 617l22 200h928l-22 -200h-928zM418 421l100 90q17 15 32 15q14 0 30 -17l76 -93q9 -15 9 -27v-4q-2 -15 -19 -32l-96 -95q-25 -21 -34 -21q-17 0 -28 15l-83 108q-7 13 -7 24v4q2 16 20 33zM485 1092l100 90q17 15 32 15q14 0 30 -18l76 -92q9 -15 9 -27v-4
q-2 -15 -19 -32l-96 -95q-25 -21 -34 -21q-17 0 -28 15l-83 108q-7 12 -7 24v3q2 17 20 34z" />
    <glyph glyph-name="oslash" unicode="&#xf8;" horiz-adv-x="1010" 
 />
    <glyph glyph-name="ugrave" unicode="&#xf9;" horiz-adv-x="1059" 
 />
    <glyph glyph-name="uacute" unicode="&#xfa;" horiz-adv-x="1059" 
 />
    <glyph glyph-name="ucircumflex" unicode="&#xfb;" horiz-adv-x="1059" 
 />
    <glyph glyph-name="udieresis" unicode="&#xfc;" horiz-adv-x="1059" 
 />
    <glyph glyph-name="yacute" unicode="&#xfd;" horiz-adv-x="868" 
 />
    <glyph glyph-name="thorn" unicode="&#xfe;" horiz-adv-x="1010" 
 />
    <glyph glyph-name="ydieresis" unicode="&#xff;" horiz-adv-x="868" 
 />
    <glyph glyph-name="dotlessi" unicode="&#x131;" horiz-adv-x="559" 
d="M209 764q1 7 1 13q0 77 -171 94l7 60q224 1 415 49l-83 -721q-14 -95 -14 -144q0 -55 42 -55q38 0 114 39l21 -29q-80 -99 -185 -99q-116 0 -185 112q-26 51 -27 105q0 7 1 16z" />
    <glyph glyph-name="circumflex" unicode="&#x2c6;" horiz-adv-x="902" 
d="M111 1079l286 357h149l204 -357h-99l-197 195l-244 -195h-99z" />
    <glyph glyph-name="caron" unicode="&#x2c7;" horiz-adv-x="1081" 
d="M224 1434h98l198 -191l240 191h98l-284 -355h-148z" />
    <glyph glyph-name="uni02C9" unicode="&#x2c9;" horiz-adv-x="1068" 
d="M257 1185l16 145h560l-16 -145h-560z" />
    <glyph glyph-name="breve" unicode="&#x2d8;" horiz-adv-x="1071" 
d="M219 1369h70q34 -80 87 -110.5t144 -30.5q100 0 159 30t101 111h70q-39 -144 -125.5 -217t-221.5 -73q-134 0 -205.5 73.5t-78.5 216.5z" />
    <glyph glyph-name="dotaccent" unicode="&#x2d9;" horiz-adv-x="1068" 
d="M423 1298l91 82q16 14 30 14q12 0 27 -16l70 -85q8 -13 8 -25v-3q-1 -14 -17 -30l-88 -87q-23 -19 -31 -19q-16 0 -26 14l-76 99q-7 12 -7 22v3q3 15 19 31z" />
    <glyph glyph-name="ring" unicode="&#x2da;" horiz-adv-x="1068" 
d="M435 1274q0 -45 30.5 -72t67.5 -27t67.5 27t30.5 72q0 43 -31 70t-67 27t-67 -27t-31 -70zM335 1274q0 78 55.5 136t142.5 58q89 0 145 -58.5t56 -135.5q0 -79 -56 -137t-145 -58q-87 0 -142.5 58t-55.5 137z" />
    <glyph glyph-name="ogonek" unicode="&#x2db;" horiz-adv-x="1069" 
d="M736 0q-175 -125 -182 -230q0 -94 78 -94q64 0 136 65l28 -25q-47 -69 -111 -106.5t-138 -37.5q-82 0 -123.5 34.5t-41.5 103.5q0 145 262 290h92z" />
    <glyph glyph-name="tilde" unicode="&#x2dc;" horiz-adv-x="1072" 
d="M892 1392q-42 -113 -105 -169t-154 -56q-70 0 -135.5 23.5t-117.5 23.5q-27 0 -46.5 -16t-44.5 -76h-67q42 117 105.5 174t156.5 57q62 -1 128 -24t118 -23q29 0 48.5 16t46.5 70h67z" />
    <glyph glyph-name="hungarumlaut" unicode="&#x2dd;" horiz-adv-x="1073" 
d="M234 1079l180 271q30 43 58.5 65t65.5 22q41 0 63 -23q19 -21 19 -45v-6q-2 -15 -15 -33.5t-37 -40.5l-236 -210h-98zM519 1079l180 271q30 43 58.5 65t65.5 22q41 0 63 -23q19 -21 19 -45v-6q-2 -15 -15 -33.5t-37 -40.5l-236 -210h-98z" />
    <glyph glyph-name="endash" unicode="&#x2013;" 
d="M56 399v160h996v-160h-996z" />
    <glyph glyph-name="emdash" unicode="&#x2014;" horiz-adv-x="2048" 
d="M0 399v160h2048v-160h-2048z" />
    <glyph glyph-name="quoteleft" unicode="&#x2018;" horiz-adv-x="578" 
d="M446 1006q-75 0 -115 71q-32 56 -32 122q0 17 2 34q12 108 100.5 231t198.5 123l-7 -55q-78 -43 -108 -188q-1 -11 -1 -21q0 -98 112 -136l-6 -46z" />
    <glyph glyph-name="quoteright" unicode="&#x2019;" horiz-adv-x="578" 
d="M342 1587q75 0 115 -70q32 -57 32 -123q0 -17 -2 -34q-13 -108 -101 -231t-198 -123l6 55q78 43 109 188q1 11 1 21q0 98 -112 136l5 46z" />
    <glyph glyph-name="quotesinglbase" unicode="&#x201a;" horiz-adv-x="578" 
d="M304 268q75 0 115 -70q32 -57 32 -123q0 -17 -2 -34q-12 -107 -100.5 -230t-198.5 -123l7 55q78 43 108 188q1 11 1 22q0 96 -112 134l6 46z" />
    <glyph glyph-name="quotedblleft" unicode="&#x201c;" horiz-adv-x="938" 
d="M446 1006q-75 0 -115 71q-32 56 -32 122q0 17 2 34q12 108 100.5 231t198.5 123l-7 -55q-78 -43 -108 -188q-1 -11 -1 -21q0 -98 112 -136l-6 -46zM806 1006q-75 0 -115 71q-32 56 -32 122q0 17 2 34q12 108 100.5 231t198.5 123l-7 -55q-78 -43 -108 -188q-1 -11 -1 -21
q0 -98 112 -136l-6 -46z" />
    <glyph glyph-name="quotedblright" unicode="&#x201d;" horiz-adv-x="938" 
d="M702 1587q75 0 115 -70q32 -57 32 -123q0 -17 -2 -34q-13 -108 -101 -231t-198 -123l6 55q78 43 109 188q1 11 1 21q0 98 -112 136l5 46zM342 1587q75 0 115 -70q32 -57 32 -123q0 -17 -2 -34q-13 -108 -101 -231t-198 -123l6 55q78 43 109 188q1 11 1 21q0 98 -112 136
l5 46z" />
    <glyph glyph-name="quotedblbase" unicode="&#x201e;" horiz-adv-x="938" 
d="M664 266q75 0 115 -70q32 -57 32 -123q0 -17 -2 -34q-12 -105 -100.5 -228t-198.5 -123l7 55q78 43 108 188q1 11 1 21q0 95 -112 133l5 46zM304 267q75 0 115 -70q32 -57 32 -123q0 -17 -2 -34q-12 -106 -100.5 -229t-198.5 -123l7 55q78 43 108 188q1 11 1 22
q0 95 -112 133l6 46z" />
    <glyph glyph-name="dagger" unicode="&#x2020;" 
d="M422 -268q23 266 23 439q0 68 -3 122q-13 192 -33 348q76 67 151 293q-132 0 -209 -53.5t-121 -53.5q-55 0 -89 36q-28 28 -28 78q0 11 2 24q8 69 49 104t96 35q51 0 115.5 -53.5t191.5 -53.5q-13 131 -44 204q-27 62 -27 103q0 7 1 13q6 55 46 93t106 38t97 -38
q26 -32 26 -76q0 -8 -1 -17q-5 -44 -53 -116.5t-91 -203.5q127 0 204.5 53.5t128.5 53.5q55 0 88 -35q27 -28 27 -78q0 -13 -2 -26q-8 -67 -50 -102.5t-97 -35.5q-44 0 -109 53.5t-197 53.5q23 -226 85 -293q-56 -156 -112.5 -348t-108.5 -560z" />
    <glyph glyph-name="daggerdbl" unicode="&#x2021;" 
d="M542 246q132 0 209 53.5t121 53.5q55 0 89 -35q28 -29 28 -79q0 -11 -2 -24q-8 -69 -49 -104t-96 -35q-51 0 -115.5 53.5t-191.5 53.5q13 -131 44 -203q27 -62 27 -104q0 -6 -1 -13q-6 -55 -46 -93t-106 -38t-97 38q-26 32 -26 76q0 9 1 17q5 44 53 116.5t91 203.5
q-127 0 -204.5 -53.5t-128.5 -53.5q-55 0 -88 35q-27 28 -27 78q0 13 2 26q8 67 50 102.5t97 35.5q44 0 109 -53.5t197 -53.5q-23 226 -79 344q82 118 157 344q-132 0 -209 -53.5t-121 -53.5q-55 0 -89 36q-28 28 -28 78q0 11 2 24q8 69 49 104t96 35q51 0 115.5 -53.5
t191.5 -53.5q-13 131 -44 204q-27 62 -27 103q0 7 1 13q6 55 46 93t106 38t97 -38q26 -32 26 -76q0 -8 -1 -17q-5 -44 -53 -116.5t-91 -203.5q127 0 204.5 53.5t128.5 53.5q55 0 88 -35q27 -28 27 -78q0 -13 -2 -26q-8 -67 -50 -102.5t-97 -35.5q-44 0 -109 53.5t-197 53.5
q23 -226 79 -344q-82 -118 -157 -344z" />
    <glyph glyph-name="bullet" unicode="&#x2022;" horiz-adv-x="1024" 
d="M216 718q0 129 93.5 231t241.5 102q147 0 240 -103t93 -230t-94 -231t-241 -104q-148 0 -240.5 103.5t-92.5 231.5z" />
    <glyph glyph-name="ellipsis" unicode="&#x2026;" horiz-adv-x="2048" 
d="M272 181l100 90q17 15 32 15q14 0 30 -17l76 -93q9 -15 9 -27v-4q-2 -15 -19 -32l-96 -95q-25 -21 -34 -21q-17 0 -28 15l-83 108q-7 13 -7 24v4q2 16 20 33zM954 181l100 90q17 15 32 15q14 0 30 -17l76 -93q9 -15 9 -27v-4q-2 -15 -19 -32l-96 -95q-25 -21 -34 -21
q-17 0 -28 15l-83 108q-7 13 -7 24v4q2 16 20 33zM1638 181l100 90q17 15 32 15q14 0 30 -17l76 -93q9 -15 9 -27v-4q-2 -15 -19 -32l-96 -95q-25 -21 -34 -21q-17 0 -28 15l-83 108q-7 13 -7 24v4q2 16 20 33z" />
    <glyph glyph-name="guilsinglleft" unicode="&#x2039;" horiz-adv-x="676" 
d="M174 479l389 313h48l-5 -47l-236 -266l174 -266l-5 -47h-48z" />
    <glyph glyph-name="guilsinglright" unicode="&#x203a;" horiz-adv-x="676" 
d="M149 166h-48l5 47l236 266l-174 266l5 47h48l317 -313z" />
    <glyph glyph-name="fraction" unicode="&#x2044;" horiz-adv-x="584" 
d="M-192 -20l810 1474h84l-808 -1474h-86z" />
    <glyph glyph-name="fraction" unicode="&#x2215;" horiz-adv-x="584" 
d="M-192 -20l810 1474h84l-808 -1474h-86z" />
    <glyph glyph-name="franc" unicode="&#x20a3;" 
d="M251 455l78 688q5 47 5 83q0 139 -77 139h-101l7 69h1004l83 -248h-70q-60 179 -132 179h-305q-98 0 -124 -222l-42 -367h326q82 0 88 52l8 68h72l-41 -358h-72l8 71q1 5 1 9q0 41 -77 41h-326l-22 -204h185l-11 -100h-185l-9 -64q-5 -42 -5 -76q0 -146 88 -146h91
l-8 -69h-688l8 69h90q109 0 134 222l8 64h-153l11 100h153z" />
    <glyph glyph-name="lira" unicode="&#x20a4;" 
d="M238 870q-13 69 -13 95q0 189 159.5 344t370.5 155h4q87 0 212 -16q122 -16 122 -38l-22 -186h-70q0 67 -70 105.5t-185 38.5q-109 0 -190.5 -94t-81.5 -303q0 -30 12 -101h370l-9 -80h-347q6 -29 12 -63h373l-9 -80h-347l14 -65q6 -32 6 -65q0 -190 -190 -407h415
q95 0 169 133h70l-140 -253h-801l7 54q229 254 229 470q0 35 -6 68l-15 65h-149l9 80h121q-7 34 -14 63h-145l9 80h120z" />
    <glyph glyph-name="peseta" unicode="&#x20a7;" horiz-adv-x="2216" 
d="M580 1374l-75 -656q2 -12 6 -20q29 -101 78 -142q45 -38 83 -38h7q45 6 104.5 66t101 172t48.5 232q1 22 1 44q0 95 -25 178q-31 102 -82 133t-97 31h-150zM1156 904q-19 -95 -69 -184q-63 -113 -172.5 -184t-231.5 -71q-123 0 -200 60l-28 -240q-5 -47 -5 -84
q0 -141 77 -141h121l-8 -70h-647l8 70h79q99 0 125 225l99 864q8 69 8 117q0 108 -41 108h-120l8 70h643q114 -2 210 -73q89 -66 128 -180q28 -83 28 -170q0 -28 -3 -57h63q178 0 259 355h87l-41 -355h274q57 19 128 20h2q80 0 164 -16q81 -15 81 -36l-19 -166h-77v12
q0 70 -44 103q-48 35 -130 35q-49 0 -84.5 -30t-43.5 -97q-1 -7 -1 -13q0 -106 200 -207q124 -59 163 -122q32 -52 32 -118q0 -15 -2 -31q-16 -133 -109 -224q-128 -97 -277 -100q-67 0 -115 8q-8 2 -17 2q-41 0 -88 -33l-11 44q-43 -10 -94 -10q-150 0 -203 63
q-43 51 -43 133q0 20 3 42l78 681h-144zM1700 902h-174l-78 -679q-3 -26 -3 -46q0 -51 18 -73q24 -32 67 -32h10l-50 195h81q67 -219 222 -219h6q70 0 126 46q57 46 68 136q1 5 1 10q0 103 -224 216q-103 57 -140 118q-30 48 -30 109q0 15 2 30q13 112 98 189z" />
    <glyph glyph-name="Euro" unicode="&#x20ac;" 
d="M79 843q29 131 100 257q99 179 266.5 281.5t338.5 102.5q90 0 159 -29q27 -13 42 -13q24 0 24 28q0 7 -2 16h74l63 -302h-78q-41 140 -137 186q-88 41 -178 41h-20q-104 -10 -213.5 -104.5t-178.5 -267.5q-39 -97 -58 -196h643l-26 -80h-628q-3 -30 -4 -60h609l-26 -80
h-584q5 -152 55 -282q60 -156 162 -227q88 -62 179 -62h3q144 2 227 76t96 184h91l-14 -148q-6 -63 -104.5 -122.5t-302.5 -61.5v1h-4q-190 0 -335 104q-147 104 -211 281q-46 125 -50 257h-101l27 80h76l2 29q1 16 4 31h-59l26 80h47z" />
    <glyph glyph-name="afii61352" unicode="&#x2116;" horiz-adv-x="2271" 
 />
    <glyph glyph-name="trademark" unicode="&#x2122;" horiz-adv-x="1497" 
 />
    <glyph glyph-name="partialdiff" unicode="&#x2202;" 
d="M331 458q0 -124 37 -231.5t91 -154.5q46 -41 81 -41h6q39 3 95.5 59t92.5 171q25 75 33 154q5 43 5 86q-1 124 -38 233t-91 155q-48 40 -85 40h-4q-34 -2 -90.5 -57.5t-94.5 -171.5q-26 -86 -34 -161q-4 -36 -4 -68v-13zM894 1169q148 -234 148 -539q0 -73 -9 -150
q-13 -124 -82 -241t-193.5 -190t-261.5 -73t-245.5 73t-151.5 190q-33 90 -33 184q0 28 3 57q14 124 84.5 241.5t195.5 190t258 72.5q157 0 194 -58q-52 185 -177.5 316.5t-318.5 146.5l8 70q397 0 581 -290z" />
    <glyph glyph-name="Delta" unicode="&#x2206;" horiz-adv-x="1235" 
d="M599 1470l577 -1470h-1170zM153 102h728l-359 915z" />
    <glyph glyph-name="product" unicode="&#x220f;" horiz-adv-x="1673" 
d="M743 1364q-98 0 -98 -215v-1281q0 -225 99 -225h100v-71h-648v71h100q99 0 99 225v1281q0 215 -99 215h-100v70h1507v-70h-101q-98 0 -98 -215v-1281q0 -225 99 -225h100v-70h-648v70h100q99 0 99 225v1281q0 215 -99 215h-412z" />
    <glyph glyph-name="summation" unicode="&#x2211;" horiz-adv-x="1285" 
d="M1199 548l-788 -894h575q130 0 189 162h69l-103 -232h-921v70q62 0 106 53l663 761l-663 839q-44 57 -106 57v70h921l103 -232h-69q-59 162 -189 162h-425z" />
    <glyph glyph-name="minus" unicode="&#x2212;" 
d="M77 617l22 200h928l-22 -200h-928z" />
    <glyph glyph-name="radical" unicode="&#x221a;" 
d="M247 -26l-185 431l162 48l73 -168l682 1374h166v-80h-93z" />
    <glyph glyph-name="infinity" unicode="&#x221e;" 
d="M473 758q-2 66 -62 95q-47 22 -90 22q-14 0 -27 -2q-58 -11 -110 -45t-76.5 -74t-25.5 -69v-8q0 -26 17 -56q20 -34 70 -51q32 -12 68 -12q19 0 38 3q56 12 105 43.5t93 153.5zM511 683q1 -60 82 -116q67 -46 129 -46q13 0 26 2q73 13 138.5 53t98.5 90.5t36 89.5v8
q0 36 -24 75q-28 42 -91 63q-41 13 -86 13q-24 0 -49 -4q-77 -10 -148 -61t-112 -167zM506 862q10 23 29 62q53 95 128 144.5t146 49.5t133.5 -48.5t92.5 -144.5q20 -68 20 -142q0 -32 -4 -66q-14 -110 -68 -207t-128.5 -145.5t-145.5 -48.5t-133 49t-91 145q-11 39 -14 63
q-3 -11 -16 -33q-42 -81 -100.5 -122t-113.5 -41q-54 0 -102.5 41.5t-70.5 124.5q-15 53 -15 111q0 31 4 63q11 91 53.5 174t102 124.5t113.5 41.5q55 0 102.5 -41t70.5 -120q7 -25 7 -34z" />
    <glyph glyph-name="integral" unicode="&#x222b;" horiz-adv-x="769" 
d="M-57 -286q-94 0 -94 33l19 167h70q0 -57 20.5 -71.5t70.5 -14.5q67 0 106.5 157.5t65.5 312.5l170 795q52 234 187 432t292 198q94 0 94 -32l-19 -168h-70q0 44 -28.5 65t-63.5 21q-56 0 -107 -150.5t-79 -361.5l-161 -766q-46 -226 -182.5 -421.5t-290.5 -195.5z" />
    <glyph glyph-name="approxequal" unicode="&#x2248;" 
d="M334 926q-56 0 -56 -83q0 -38 20 -116h-50q-84 111 -84 188q0 60 48 103.5t122 43.5q83 0 237 -89t209 -89q56 0 56 83q0 38 -20 116h50q84 -111 84 -188q0 -60 -48 -103.5t-122 -43.5q-83 0 -237 89t-209 89zM334 527q-56 0 -56 -83q0 -38 20 -116h-50q-84 111 -84 188
q0 60 48 103.5t122 43.5q83 0 237 -89t209 -89q56 0 56 83q0 38 -20 116h50q84 -111 84 -188q0 -60 -48 -103.5t-122 -43.5q-83 0 -237 89t-209 89z" />
    <glyph glyph-name="lessequal" unicode="&#x2264;" 
d="M951 200l-803 479l8 73l988 521l-23 -205l-673 -353l592 -350l-41 -365h-928l22 200h858z" />
    <glyph glyph-name="greaterequal" unicode="&#x2265;" 
d="M118 365l673 350l-592 353l24 205l868 -521l-8 -73l-914 -479h858l-22 -200h-928z" />
    <glyph glyph-name="uniF001" unicode="&#xf001;" horiz-adv-x="1073" 
 />
    <glyph glyph-name="uniF001" unicode="&#xfb01;" horiz-adv-x="1073" 
 />
    <glyph glyph-name="uniF002" unicode="&#xf002;" horiz-adv-x="1081" 
 />
    <glyph glyph-name="uniF002" unicode="&#xfb02;" horiz-adv-x="1081" 
 />
  </font>
</defs>
</svg>
